<svg xmlns="http://www.w3.org/2000/svg" width="151" height="151" fill="none" viewBox="0 0 151 151"><g clip-path="url(#clip0_5_98)"><path fill="#fff" d="M60.5227 72.3456H89.8196C90.4023 72.3456 90.9612 72.1141 91.3733 71.702C91.7854 71.2899 92.0168 70.7311 92.0168 70.1483V46.7108C92.0168 46.1281 91.7854 45.5692 91.3733 45.1571C90.9612 44.745 90.4023 44.5135 89.8196 44.5135H86.1575V37.9218C86.1575 35.008 85 32.2136 82.9397 30.1532C80.8793 28.0929 78.0849 26.9354 75.1711 26.9354C72.2574 26.9354 69.463 28.0929 67.4026 30.1532C65.3423 32.2136 64.1848 35.008 64.1848 37.9218V44.5135H60.5227C59.94 44.5135 59.3811 44.745 58.969 45.1571C58.5569 45.5692 58.3254 46.1281 58.3254 46.7108V70.1483C58.3254 70.7311 58.5569 71.2899 58.969 71.702C59.3811 72.1141 59.94 72.3456 60.5227 72.3456ZM68.5793 37.9218C68.5793 36.1735 69.2738 34.4969 70.51 33.2606C71.7462 32.0244 73.4229 31.33 75.1711 31.33C76.9194 31.33 78.596 32.0244 79.8322 33.2606C81.0685 34.4969 81.7629 36.1735 81.7629 37.9218V44.5135H68.5793V37.9218ZM62.72 48.9081H87.6223V67.951H62.72V48.9081Z"/><path fill="#fff" d="M78.1008 56.2323H72.2415C71.6587 56.2323 71.0998 56.4638 70.6878 56.8759C70.2757 57.2879 70.0442 57.8468 70.0442 58.4296C70.0442 59.0123 70.2757 59.5712 70.6878 59.9833C71.0998 60.3953 71.6587 60.6268 72.2415 60.6268H78.1008C78.6836 60.6268 79.2425 60.3953 79.6545 59.9833C80.0666 59.5712 80.2981 59.0123 80.2981 58.4296C80.2981 57.8468 80.0666 57.2879 79.6545 56.8759C79.2425 56.4638 78.6836 56.2323 78.1008 56.2323Z"/><path fill="#fff" d="M44.4094 97.8339C46.1572 97.8323 47.8329 97.1373 49.0688 95.9015C50.3047 94.6656 50.9997 92.9898 51.0012 91.2421V88.3124C51.0012 86.5641 50.3067 84.8875 49.0705 83.6513C47.8343 82.4151 46.1577 81.7206 44.4094 81.7206C42.6612 81.7206 40.9845 82.4151 39.7483 83.6513C38.5121 84.8875 37.8176 86.5641 37.8176 88.3124V91.2421C37.8192 92.9898 38.5142 94.6656 39.75 95.9015C40.9859 97.1373 42.6616 97.8323 44.4094 97.8339ZM42.2122 88.3124C42.2122 87.7296 42.4437 87.1707 42.8557 86.7587C43.2678 86.3466 43.8267 86.1151 44.4094 86.1151C44.9922 86.1151 45.5511 86.3466 45.9631 86.7587C46.3752 87.1707 46.6067 87.7296 46.6067 88.3124V91.2421C46.6067 91.8248 46.3752 92.3837 45.9631 92.7958C45.5511 93.2078 44.9922 93.4393 44.4094 93.4393C43.8267 93.4393 43.2678 93.2078 42.8557 92.7958C42.4437 92.3837 42.2122 91.8248 42.2122 91.2421V88.3124Z"/><path fill="#fff" d="M59.0578 88.9188V95.6366C59.0578 96.2193 59.2893 96.7782 59.7014 97.1903C60.1135 97.6024 60.6723 97.8339 61.2551 97.8339C61.8378 97.8339 62.3967 97.6024 62.8088 97.1903C63.2209 96.7782 63.4524 96.2193 63.4524 95.6366V83.9178C63.452 83.4835 63.3229 83.0591 63.0814 82.6981C62.84 82.3371 62.4969 82.0558 62.0957 81.8897C61.6944 81.7235 61.2529 81.68 60.827 81.7646C60.401 81.8493 60.0096 82.0582 59.7023 82.3651L56.7727 85.2948C56.4213 85.6473 56.2 86.1087 56.145 86.6035C56.0901 87.0982 56.2047 87.5969 56.4702 88.018C56.7357 88.439 57.1363 88.7574 57.6064 88.9211C58.0765 89.0848 58.5882 89.084 59.0578 88.9188Z"/><path fill="#fff" d="M75.1711 81.7206C73.4234 81.7221 71.7476 82.4171 70.5118 83.653C69.2759 84.8889 68.5809 86.5646 68.5793 88.3124V91.2421C68.5793 92.9903 69.2738 94.667 70.51 95.9032C71.7462 97.1394 73.4229 97.8339 75.1711 97.8339C76.9194 97.8339 78.596 97.1394 79.8322 95.9032C81.0685 94.667 81.7629 92.9903 81.7629 91.2421V88.3124C81.7614 86.5646 81.0664 84.8889 79.8305 83.653C78.5947 82.4171 76.9189 81.7221 75.1711 81.7206ZM77.3684 91.2421C77.3684 91.8248 77.1369 92.3837 76.7248 92.7958C76.3128 93.2078 75.7539 93.4393 75.1711 93.4393C74.5884 93.4393 74.0295 93.2078 73.6174 92.7958C73.2054 92.3837 72.9739 91.8248 72.9739 91.2421V88.3124C72.9739 87.7296 73.2054 87.1707 73.6174 86.7587C74.0295 86.3466 74.5884 86.1151 75.1711 86.1151C75.7539 86.1151 76.3128 86.3466 76.7248 86.7587C77.1369 87.1707 77.3684 87.7296 77.3684 88.3124V91.2421Z"/><path fill="#fff" d="M105.933 97.8339C107.681 97.8323 109.356 97.1373 110.592 95.9015C111.828 94.6656 112.523 92.9898 112.525 91.2421V88.3124C112.525 86.5641 111.83 84.8875 110.594 83.6513C109.358 82.4151 107.681 81.7206 105.933 81.7206C104.185 81.7206 102.508 82.4151 101.272 83.6513C100.036 84.8875 99.3411 86.5641 99.3411 88.3124V91.2421C99.3426 92.9898 100.038 94.6656 101.273 95.9015C102.509 97.1373 104.185 97.8323 105.933 97.8339ZM103.736 88.3124C103.736 87.7296 103.967 87.1707 104.379 86.7587C104.791 86.3466 105.35 86.1151 105.933 86.1151C106.516 86.1151 107.074 86.3466 107.487 86.7587C107.899 87.1707 108.13 87.7296 108.13 88.3124V91.2421C108.13 91.8248 107.899 92.3837 107.487 92.7958C107.074 93.2078 106.516 93.4393 105.933 93.4393C105.35 93.4393 104.791 93.2078 104.379 92.7958C103.967 92.3837 103.736 91.8248 103.736 91.2421V88.3124Z"/><path fill="#fff" d="M90.4641 82.3651L87.5344 85.2948C87.183 85.6473 86.9617 86.1087 86.9067 86.6035C86.8518 87.0982 86.9665 87.5969 87.232 88.018C87.4975 88.439 87.898 88.7574 88.3681 88.9211C88.8382 89.0848 89.35 89.084 89.8195 88.9188V95.6366C89.8195 96.2193 90.051 96.7782 90.4631 97.1903C90.8752 97.6024 91.4341 97.8339 92.0168 97.8339C92.5996 97.8339 93.1584 97.6024 93.5705 97.1903C93.9826 96.7782 94.2141 96.2193 94.2141 95.6366V83.9178C94.2137 83.4835 94.0846 83.0591 93.8431 82.6981C93.6017 82.3371 93.2587 82.0558 92.8574 81.8897C92.4561 81.7235 92.0146 81.68 91.5887 81.7646C91.1627 81.8493 90.7714 82.0582 90.4641 82.3651Z"/><path fill="#fff" d="M147.974 20.1971H124.243V2.7655C124.243 2.18275 124.012 1.62387 123.6 1.2118C123.188 0.799734 122.629 0.568237 122.046 0.568237L28.2961 0.568237C27.7134 0.568237 27.1545 0.799734 26.7424 1.2118C26.3304 1.62387 26.0989 2.18275 26.0989 2.7655V20.1971H2.36841C1.78566 20.1971 1.22677 20.4286 0.814707 20.8407C0.40264 21.2528 0.171143 21.8117 0.171143 22.3944L0.171143 124.933C0.171143 125.516 0.40264 126.075 0.814707 126.487C1.22677 126.899 1.78566 127.131 2.36841 127.131H52.4661V131.877L47.7786 137.385H29.761C28.0127 137.385 26.3361 138.079 25.0999 139.315C23.8637 140.552 23.1692 142.228 23.1692 143.976C23.1692 145.725 23.8637 147.401 25.0999 148.638C26.3361 149.874 28.0127 150.568 29.761 150.568H120.581C122.33 150.568 124.006 149.874 125.242 148.638C126.479 147.401 127.173 145.725 127.173 143.976C127.173 142.228 126.479 140.552 125.242 139.315C124.006 138.079 122.33 137.385 120.581 137.385H102.593L97.8762 131.487V127.131H147.974C148.557 127.131 149.116 126.899 149.528 126.487C149.94 126.075 150.171 125.516 150.171 124.933V22.3944C150.171 21.8117 149.94 21.2528 149.528 20.8407C149.116 20.4286 148.557 20.1971 147.974 20.1971ZM145.777 24.5917V105.158H124.243V24.5917H145.777ZM119.849 105.158H30.4934V19.6112H119.849V105.158ZM119.849 4.96277V15.2167H30.4934V4.96277H119.849ZM26.0989 24.5917V105.158H4.56567V24.5917H26.0989ZM122.779 143.976C122.779 144.559 122.547 145.118 122.135 145.53C121.723 145.942 121.164 146.174 120.581 146.174H29.761C29.1782 146.174 28.6194 145.942 28.2073 145.53C27.7952 145.118 27.5637 144.559 27.5637 143.976C27.5637 143.394 27.7952 142.835 28.2073 142.423C28.6194 142.011 29.1782 141.779 29.761 141.779H120.581C121.164 141.779 121.723 142.011 122.135 142.423C122.547 142.835 122.779 143.394 122.779 143.976ZM93.9622 133.632L96.968 137.385H53.553L56.3391 134.106C56.6736 133.713 56.8583 133.214 56.8606 132.697V127.131H93.4817V132.258C93.482 132.757 93.6514 133.241 93.9622 133.632ZM4.56567 122.736V109.553H145.777V122.736H4.56567Z"/><path fill="#fff" d="M100.073 12.287H101.538C102.121 12.287 102.68 12.0555 103.092 11.6434C103.504 11.2314 103.736 10.6725 103.736 10.0897C103.736 9.50697 103.504 8.94809 103.092 8.53602C102.68 8.12395 102.121 7.89246 101.538 7.89246H100.073C99.4907 7.89246 98.9318 8.12395 98.5198 8.53602C98.1077 8.94809 97.8762 9.50697 97.8762 10.0897C97.8762 10.6725 98.1077 11.2314 98.5198 11.6434C98.9318 12.0555 99.4907 12.287 100.073 12.287Z"/><path fill="#fff" d="M111.792 12.287H113.257C113.84 12.287 114.399 12.0555 114.811 11.6434C115.223 11.2314 115.454 10.6725 115.454 10.0897C115.454 9.50697 115.223 8.94809 114.811 8.53602C114.399 8.12395 113.84 7.89246 113.257 7.89246H111.792C111.209 7.89246 110.651 8.12395 110.239 8.53602C109.826 8.94809 109.595 9.50697 109.595 10.0897C109.595 10.6725 109.826 11.2314 110.239 11.6434C110.651 12.0555 111.209 12.287 111.792 12.287Z"/><path fill="#fff" d="M83.9602 113.947H66.3821C65.7993 113.947 65.2404 114.179 64.8284 114.591C64.4163 115.003 64.1848 115.562 64.1848 116.144C64.1848 116.727 64.4163 117.286 64.8284 117.698C65.2404 118.11 65.7993 118.342 66.3821 118.342H83.9602C84.543 118.342 85.1018 118.11 85.5139 117.698C85.926 117.286 86.1575 116.727 86.1575 116.144C86.1575 115.562 85.926 115.003 85.5139 114.591C85.1018 114.179 84.543 113.947 83.9602 113.947Z"/></g><defs><clipPath id="clip0_5_98"><rect width="150" height="150" fill="#fff" transform="translate(0.171143 0.568237)"/></clipPath></defs></svg>