<svg xmlns="http://www.w3.org/2000/svg" width="151" height="151" fill="none" viewBox="0 0 151 151"><g clip-path="url(#clip0_81_125)"><path fill="#fff" d="M147.974 111.017H141.382V101.496C141.382 100.913 141.15 100.354 140.738 99.9423C140.326 99.5302 139.767 99.2987 139.185 99.2987H136.987V32.6483C136.987 30.9001 136.293 29.2234 135.057 27.9872C133.821 26.751 132.144 26.0565 130.396 26.0565C128.647 26.0565 126.971 26.751 125.735 27.9872C124.498 29.2234 123.804 30.9001 123.804 32.6483V99.2987H121.607C121.024 99.2987 120.465 99.5302 120.053 99.9423C119.641 100.354 119.409 100.913 119.409 101.496V111.017H30.9327V101.496C30.9327 100.913 30.7012 100.354 30.2892 99.9423C29.8771 99.5302 29.3182 99.2987 28.7355 99.2987H26.5382V32.6483C26.5382 30.9001 25.8437 29.2234 24.6075 27.9872C23.3713 26.751 21.6947 26.0565 19.9464 26.0565C18.1982 26.0565 16.5215 26.751 15.2853 27.9872C14.0491 29.2234 13.3546 30.9001 13.3546 32.6483V99.2987H11.1573C10.5746 99.2987 10.0157 99.5302 9.60365 99.9423C9.19158 100.354 8.96008 100.913 8.96008 101.496V111.017H2.36829C1.78554 111.017 1.22665 111.249 0.814585 111.661C0.402517 112.073 0.171021 112.632 0.171021 113.215L0.171021 139.582C0.171021 140.165 0.402517 140.724 0.814585 141.136C1.22665 141.548 1.78554 141.779 2.36829 141.779H5.59094V148.371C5.59094 148.954 5.82244 149.513 6.23451 149.925C6.64657 150.337 7.20546 150.568 7.78821 150.568H142.554C143.137 150.568 143.695 150.337 144.108 149.925C144.52 149.513 144.751 148.954 144.751 148.371V141.779H147.974C148.557 141.779 149.115 141.548 149.527 141.136C149.94 140.724 150.171 140.165 150.171 139.582V113.215C150.171 112.632 149.94 112.073 149.527 111.661C149.115 111.249 148.557 111.017 147.974 111.017ZM128.198 32.6483C128.198 32.0656 128.43 31.5067 128.842 31.0946C129.254 30.6825 129.813 30.451 130.396 30.451C130.978 30.451 131.537 30.6825 131.949 31.0946C132.361 31.5067 132.593 32.0656 132.593 32.6483V99.2987H128.198V32.6483ZM123.804 103.693H136.987V111.017H123.804V103.693ZM17.7491 32.6483C17.7491 32.0656 17.9806 31.5067 18.3927 31.0946C18.8048 30.6825 19.3637 30.451 19.9464 30.451C20.5292 30.451 21.088 30.6825 21.5001 31.0946C21.9122 31.5067 22.1437 32.0656 22.1437 32.6483V99.2987H17.7491V32.6483ZM13.3546 103.693H26.5382V111.017H13.3546V103.693ZM140.357 146.174H9.98547V141.779H140.357V146.174ZM145.776 137.385H4.56555V115.412H145.776V137.385Z"/><path fill="#fff" d="M11.1573 132.99H75.6105C76.1932 132.99 76.7521 132.759 77.1642 132.347C77.5762 131.934 77.8077 131.376 77.8077 130.793V122.004C77.8077 121.421 77.5762 120.862 77.1642 120.45C76.7521 120.038 76.1932 119.807 75.6105 119.807H11.1573C10.5746 119.807 10.0157 120.038 9.60365 120.45C9.19158 120.862 8.96008 121.421 8.96008 122.004V130.793C8.96008 131.376 9.19158 131.934 9.60365 132.347C10.0157 132.759 10.5746 132.99 11.1573 132.99ZM13.3546 124.201H73.4132V128.596H13.3546V124.201Z"/><path fill="#fff" d="M121.607 132.99H139.185C139.767 132.99 140.326 132.759 140.738 132.347C141.15 131.934 141.382 131.376 141.382 130.793V122.004C141.382 121.421 141.15 120.862 140.738 120.45C140.326 120.038 139.767 119.807 139.185 119.807H121.607C121.024 119.807 120.465 120.038 120.053 120.45C119.641 120.862 119.409 121.421 119.409 122.004V130.793C119.409 131.376 119.641 131.934 120.053 132.347C120.465 132.759 121.024 132.99 121.607 132.99ZM123.804 124.201H136.987V128.596H123.804V124.201Z"/><path fill="#fff" d="M92.3097 132.99H109.888C110.471 132.99 111.029 132.759 111.442 132.347C111.854 131.934 112.085 131.376 112.085 130.793V122.004C112.085 121.421 111.854 120.862 111.442 120.45C111.029 120.038 110.471 119.807 109.888 119.807H92.3097C91.7269 119.807 91.1681 120.038 90.756 120.45C90.3439 120.862 90.1124 121.421 90.1124 122.004V130.793C90.1124 131.376 90.3439 131.934 90.756 132.347C91.1681 132.759 91.7269 132.99 92.3097 132.99ZM94.507 124.201H107.691V128.596H94.507V124.201Z"/><path fill="#fff" d="M51.7335 41.5839C51.1508 41.5839 50.5919 41.8154 50.1798 42.2274C49.7678 42.6395 49.5363 43.1984 49.5363 43.7811V73.078C49.5363 73.6608 49.7678 74.2196 50.1798 74.6317C50.5919 75.0438 51.1508 75.2753 51.7335 75.2753H98.6085C99.1913 75.2753 99.7502 75.0438 100.162 74.6317C100.574 74.2196 100.806 73.6608 100.806 73.078V43.7811C100.806 43.1984 100.574 42.6395 100.162 42.2274C99.7502 41.8154 99.1913 41.5839 98.6085 41.5839H92.0167V29.1327C92.0167 24.6649 90.2419 20.3802 87.0827 17.221C83.9235 14.0618 79.6388 12.287 75.171 12.287C70.7033 12.287 66.4185 14.0618 63.2593 17.221C60.1001 20.3802 58.3253 24.6649 58.3253 29.1327V41.5839H51.7335ZM96.4113 70.8807H53.9308V45.9784H96.4113V70.8807ZM62.7198 29.1327C62.7198 25.8304 64.0317 22.6634 66.3667 20.3284C68.7018 17.9933 71.8688 16.6815 75.171 16.6815C78.4733 16.6815 81.6403 17.9933 83.9753 20.3284C86.3104 22.6634 87.6222 25.8304 87.6222 29.1327V41.5839H62.7198V29.1327Z"/><path fill="#fff" d="M96.8507 4.96276C98.7307 4.91403 100.601 5.2484 102.348 5.94551C104.094 6.64263 105.681 7.6879 107.011 9.01771C108.34 10.3475 109.386 11.934 110.083 13.6807C110.78 15.4274 111.114 17.2976 111.066 19.1776C111.06 19.4662 111.112 19.7529 111.218 20.0214C111.324 20.2899 111.482 20.535 111.682 20.7426C111.883 20.9501 112.122 21.1162 112.387 21.2312C112.651 21.3462 112.936 21.408 113.225 21.413H113.257C113.834 21.413 114.387 21.1864 114.798 20.7819C115.209 20.3774 115.445 19.8275 115.454 19.2508C115.512 16.7814 115.068 14.3259 114.149 12.0329C113.231 9.7399 111.857 7.65713 110.11 5.91061C108.363 4.16408 106.28 2.79012 103.987 1.87185C101.694 0.953575 99.2381 0.510091 96.7687 0.56823C96.1859 0.579108 95.6314 0.821038 95.227 1.2408C94.8226 1.66056 94.6015 2.22376 94.6124 2.80651C94.6233 3.38926 94.8652 3.94382 95.285 4.3482C95.7047 4.75258 96.2679 4.97364 96.8507 4.96276Z"/><path fill="#fff" d="M95.8839 13.1308C97.9933 12.9345 99.8712 13.5438 101.175 14.8475C102.479 16.1513 103.088 18.0321 102.892 20.1386C102.863 20.4264 102.892 20.7171 102.977 20.9938C103.061 21.2705 103.199 21.5278 103.383 21.751C103.567 21.9742 103.793 22.1589 104.049 22.2944C104.304 22.43 104.584 22.5138 104.872 22.5409H105.08C105.627 22.541 106.155 22.3368 106.559 21.9683C106.963 21.5997 107.215 21.0935 107.266 20.5487C107.588 17.1151 106.527 13.9862 104.283 11.7391C102.039 9.49208 98.9015 8.43446 95.4738 8.77138C95.1814 8.79158 94.896 8.87007 94.6344 9.00223C94.3728 9.13439 94.1403 9.31755 93.9506 9.54093C93.7608 9.7643 93.6177 10.0234 93.5296 10.3029C93.4415 10.5824 93.4102 10.8768 93.4376 11.1686C93.4649 11.4604 93.5504 11.7437 93.6889 12.002C93.8275 12.2603 94.0163 12.4882 94.2442 12.6724C94.4722 12.8566 94.7347 12.9934 95.0163 13.0746C95.2979 13.1558 95.5929 13.1799 95.8839 13.1454V13.1308Z"/><path fill="#fff" d="M37.0851 21.4159H37.1232C37.4117 21.4109 37.6965 21.3492 37.9612 21.2341C38.2259 21.1191 38.4653 20.9531 38.6658 20.7455C38.8663 20.5379 39.024 20.2929 39.1298 20.0243C39.2355 19.7558 39.2874 19.4691 39.2823 19.1805C39.2332 17.3008 39.5671 15.4307 40.2637 13.6841C40.9603 11.9375 42.005 10.3509 43.3342 9.02088C44.6634 7.69084 46.2494 6.64518 47.9955 5.94752C49.7417 5.24987 51.6116 4.91481 53.4913 4.96275C53.7799 4.96756 54.0666 4.91549 54.335 4.80951C54.6034 4.70353 54.8483 4.54572 55.0558 4.34508C55.2632 4.14445 55.4291 3.90492 55.5439 3.64018C55.6588 3.37543 55.7204 3.09066 55.7252 2.80211C55.73 2.51356 55.678 2.22689 55.572 1.95846C55.466 1.69004 55.3082 1.44512 55.1076 1.23768C54.9069 1.03025 54.6674 0.86436 54.4026 0.749494C54.1379 0.634628 53.8531 0.573032 53.5646 0.568223C51.0954 0.510486 48.6401 0.954268 46.3473 1.87272C44.0545 2.79117 41.9719 4.1652 40.2254 5.91168C38.4789 7.65816 37.1049 9.74079 36.1865 12.0336C35.268 14.3263 34.8242 16.7816 34.882 19.2508C34.8904 19.829 35.1265 20.3805 35.5389 20.7858C35.9513 21.1911 36.5069 21.4175 37.0851 21.4159Z"/><path fill="#fff" d="M46.0587 11.7392C43.8234 13.9862 42.754 17.1151 43.0763 20.5487C43.1267 21.0935 43.3787 21.5997 43.7831 21.9683C44.1874 22.3368 44.7148 22.541 45.2618 22.5409H45.4698C46.0498 22.486 46.5842 22.203 46.9556 21.7542C47.327 21.3053 47.5049 20.7274 47.4503 20.1474C47.254 18.0409 47.8634 16.1601 49.1671 14.8563C50.4708 13.5526 52.3517 12.9433 54.4581 13.1395C54.7538 13.1844 55.0556 13.1685 55.3449 13.0927C55.6343 13.0169 55.9051 12.8828 56.1408 12.6986C56.3765 12.5145 56.5721 12.2841 56.7156 12.0217C56.8592 11.7593 56.9477 11.4704 56.9756 11.1726C57.0036 10.8748 56.9704 10.5744 56.8782 10.2899C56.7861 10.0054 56.6367 9.74263 56.4394 9.51783C56.2421 9.29302 56.001 9.11086 55.7309 8.98251C55.4607 8.85416 55.1672 8.78231 54.8683 8.77138C51.4405 8.43447 48.3058 9.49502 46.0587 11.7392Z"/><path fill="#fff" d="M73.7062 65.0214H76.6359C78.3841 65.0214 80.0608 64.3269 81.297 63.0907C82.5332 61.8545 83.2277 60.1778 83.2277 58.4296C83.2277 56.6813 82.5332 55.0047 81.297 53.7685C80.0608 52.5323 78.3841 51.8378 76.6359 51.8378H73.7062C71.9579 51.8378 70.2813 52.5323 69.0451 53.7685C67.8089 55.0047 67.1144 56.6813 67.1144 58.4296C67.1144 60.1778 67.8089 61.8545 69.0451 63.0907C70.2813 64.3269 71.9579 65.0214 73.7062 65.0214ZM73.7062 56.2323H76.6359C77.2186 56.2323 77.7775 56.4638 78.1896 56.8759C78.6016 57.2879 78.8331 57.8468 78.8331 58.4296C78.8331 59.0123 78.6016 59.5712 78.1896 59.9833C77.7775 60.3953 77.2186 60.6268 76.6359 60.6268H73.7062C73.1234 60.6268 72.5645 60.3953 72.1525 59.9833C71.7404 59.5712 71.5089 59.0123 71.5089 58.4296C71.5089 57.8468 71.7404 57.2879 72.1525 56.8759C72.5645 56.4638 73.1234 56.2323 73.7062 56.2323Z"/></g><defs><clipPath id="clip0_81_125"><rect width="150" height="150" fill="#fff" transform="translate(0.171021 0.568237)"/></clipPath></defs></svg>