<svg xmlns="http://www.w3.org/2000/svg" width="151" height="150" fill="none" viewBox="0 0 151 150"><g id="server" clip-path="url(#clip0_81_142)"><path id="Vector" fill="#fff" d="M149.481 46.1367L114.325 30.5127C114.044 30.3866 113.74 30.3214 113.432 30.3214C113.124 30.3214 112.819 30.3866 112.538 30.5127L104.789 33.9551V23.7305C104.789 23.1477 104.558 22.5888 104.145 22.1768C103.733 21.7647 103.174 21.5332 102.592 21.5332H2.98236C2.39961 21.5332 1.84073 21.7647 1.42866 22.1768C1.01659 22.5888 0.785095 23.1477 0.785095 23.7305L0.785095 50.0977C0.785095 50.6804 1.01659 51.2393 1.42866 51.6514C1.84073 52.0634 2.39961 52.2949 2.98236 52.2949H6.64447V59.6191H2.98236C2.39961 59.6191 1.84073 59.8506 1.42866 60.2627C1.01659 60.6748 0.785095 61.2337 0.785095 61.8164L0.785095 88.1836C0.785095 88.7663 1.01659 89.3252 1.42866 89.7373C1.84073 90.1494 2.39961 90.3809 2.98236 90.3809H6.64447V97.7051H2.98236C2.39961 97.7051 1.84073 97.9366 1.42866 98.3486C1.01659 98.7607 0.785095 99.3196 0.785095 99.9023L0.785095 126.27C0.785095 126.852 1.01659 127.411 1.42866 127.823C1.84073 128.235 2.39961 128.467 2.98236 128.467H102.592C103.174 128.467 103.733 128.235 104.145 127.823C104.558 127.411 104.789 126.852 104.789 126.27V124.143C107.27 125.704 109.859 127.086 112.538 128.276C112.819 128.402 113.124 128.467 113.432 128.467C113.74 128.467 114.044 128.402 114.325 128.276C125.174 123.448 134.39 115.579 140.861 105.622C147.332 95.6656 150.779 84.0474 150.785 72.1729V48.1494C150.786 47.7238 150.663 47.3071 150.432 46.9498C150.2 46.5926 149.87 46.3101 149.481 46.1367ZM5.17963 34.6436H41.8007V39.0381H5.17963V34.6436ZM5.17963 43.4326H43.998C44.5807 43.4326 45.1396 43.2011 45.5517 42.7891C45.9638 42.377 46.1953 41.8181 46.1953 41.2354V32.4463C46.1953 31.8635 45.9638 31.3047 45.5517 30.8926C45.1396 30.4805 44.5807 30.249 43.998 30.249H5.17963V25.9277H100.394V35.9092L77.3818 46.1367C77.0329 46.2924 76.7308 46.5365 76.5052 46.8448C76.2796 47.1531 76.1385 47.5149 76.0956 47.8945H5.17963V43.4326ZM11.039 52.2949H76.0781V59.6191H11.039V52.2949ZM5.17963 72.7295H41.8007V77.124H5.17963V72.7295ZM5.17963 81.5186H43.998C44.5807 81.5186 45.1396 81.2871 45.5517 80.875C45.9638 80.4629 46.1953 79.904 46.1953 79.3213V70.5322C46.1953 69.9495 45.9638 69.3906 45.5517 68.9785C45.1396 68.5665 44.5807 68.335 43.998 68.335H5.17963V64.0137H76.0781V72.1729C76.0787 76.8223 76.6085 81.4566 77.6572 85.9863H5.17963V81.5186ZM11.039 90.3809H78.8466C79.6241 92.8795 80.5606 95.3259 81.6503 97.7051H11.039V90.3809ZM5.17963 110.815H41.8007V115.21H5.17963V110.815ZM100.394 124.072H5.17963V119.604H43.998C44.5807 119.604 45.1396 119.373 45.5517 118.961C45.9638 118.549 46.1953 117.99 46.1953 117.407V108.618C46.1953 108.035 45.9638 107.477 45.5517 107.064C45.1396 106.652 44.5807 106.421 43.998 106.421H5.17963V102.1H83.8798C88.0141 109.506 93.637 115.975 100.394 121.102V124.072ZM146.391 72.1729C146.385 83.0309 143.28 93.6618 137.442 102.817C131.604 111.972 123.274 119.27 113.432 123.855C103.589 119.27 95.2595 111.972 89.4212 102.817C83.583 93.6618 80.4785 83.0309 80.4726 72.1729V49.5732L113.432 34.9248L146.391 49.5732V72.1729Z"/><path id="Vector_2" fill="#fff" d="M69.4863 30.3955H57.7675C57.1848 30.3955 56.6259 30.627 56.2138 31.0391C55.8017 31.4511 55.5703 32.01 55.5703 32.5928V41.3818C55.5703 41.9646 55.8017 42.5235 56.2138 42.9355C56.6259 43.3476 57.1848 43.5791 57.7675 43.5791H69.4863C70.069 43.5791 70.6279 43.3476 71.04 42.9355C71.452 42.5235 71.6835 41.9646 71.6835 41.3818V32.5928C71.6835 32.01 71.452 31.4511 71.04 31.0391C70.6279 30.627 70.069 30.3955 69.4863 30.3955ZM67.289 39.1846H59.9648V34.79H67.289V39.1846Z"/><path id="Vector_3" fill="#fff" d="M69.4863 68.4814H57.7675C57.1848 68.4814 56.6259 68.7129 56.2138 69.125C55.8017 69.5371 55.5703 70.096 55.5703 70.6787V79.4678C55.5703 80.0505 55.8017 80.6094 56.2138 81.0215C56.6259 81.4335 57.1848 81.665 57.7675 81.665H69.4863C70.069 81.665 70.6279 81.4335 71.04 81.0215C71.452 80.6094 71.6835 80.0505 71.6835 79.4678V70.6787C71.6835 70.096 71.452 69.5371 71.04 69.125C70.6279 68.7129 70.069 68.4814 69.4863 68.4814ZM67.289 77.2705H59.9648V72.876H67.289V77.2705Z"/><path id="Vector_4" fill="#fff" d="M69.4863 106.567H57.7675C57.1848 106.567 56.6259 106.799 56.2138 107.211C55.8017 107.623 55.5703 108.182 55.5703 108.765V117.554C55.5703 118.136 55.8017 118.695 56.2138 119.107C56.6259 119.519 57.1848 119.751 57.7675 119.751H69.4863C70.069 119.751 70.6279 119.519 71.04 119.107C71.452 118.695 71.6835 118.136 71.6835 117.554V108.765C71.6835 108.182 71.452 107.623 71.04 107.211C70.6279 106.799 70.069 106.567 69.4863 106.567ZM67.289 115.356H59.9648V110.962H67.289V115.356Z"/><path id="Vector_5" fill="#fff" d="M90.7265 79.3945C90.7265 83.8852 92.0581 88.275 94.553 92.0088C97.0479 95.7426 100.594 98.6528 104.743 100.371C108.892 102.09 113.457 102.539 117.861 101.663C122.265 100.787 126.311 98.6248 129.486 95.4494C132.662 92.2741 134.824 88.2284 135.7 83.8241C136.576 79.4197 136.127 74.8545 134.408 70.7057C132.69 66.5569 129.78 63.0108 126.046 60.516C122.312 58.0211 117.922 56.6895 113.432 56.6895C107.412 56.6964 101.641 59.0908 97.3844 63.3473C93.1279 67.6038 90.7335 73.3749 90.7265 79.3945ZM131.742 79.3945C131.742 83.016 130.668 86.5562 128.656 89.5673C126.644 92.5785 123.785 94.9254 120.439 96.3113C117.093 97.6972 113.411 98.0598 109.859 97.3532C106.307 96.6467 103.045 94.9028 100.484 92.342C97.9233 89.7813 96.1794 86.5186 95.4729 82.9667C94.7664 79.4148 95.129 75.7332 96.5148 72.3874C97.9007 69.0416 100.248 66.1819 103.259 64.1699C106.27 62.1579 109.81 61.084 113.432 61.084C118.286 61.0894 122.94 63.0203 126.373 66.453C129.806 69.8857 131.737 74.5399 131.742 79.3945Z"/><path id="Vector_6" fill="#fff" d="M106.207 78.8848C105.798 78.4699 105.24 78.2346 104.657 78.2308C104.074 78.2269 103.514 78.4548 103.099 78.8643C102.684 79.2738 102.448 79.8313 102.445 80.4142C102.441 80.9972 102.669 81.5578 103.078 81.9727L108.258 87.2168C108.462 87.4237 108.706 87.5879 108.974 87.6999C109.242 87.812 109.53 87.8697 109.821 87.8697C110.112 87.8697 110.399 87.812 110.668 87.6999C110.936 87.5879 111.179 87.4237 111.384 87.2168L123.785 74.6602C124.195 74.2453 124.422 73.6847 124.419 73.1017C124.415 72.5188 124.18 71.9613 123.765 71.5518C123.35 71.1423 122.789 70.9144 122.206 70.9183C121.623 70.9221 121.066 71.1574 120.656 71.5723L109.816 82.544L106.207 78.8848Z"/></g><defs><clipPath id="clip0_81_142"><rect width="150" height="150" fill="#fff" transform="translate(0.785095)"/></clipPath></defs></svg>